<?xml version="1.0" encoding="UTF-8"?>
<svg xmlns="http://www.w3.org/2000/svg" xmlns:xlink="http://www.w3.org/1999/xlink" width="16px" height="13px" viewBox="0 0 16 13" version="1.1">
<g id="surface1">
<path style=" stroke:none;fill-rule:nonzero;fill:rgb(0%,0%,0%);fill-opacity:1;" d="M 9.652344 5.800781 C 9.699219 6.046875 9.730469 6.292969 9.730469 6.613281 C 9.730469 9.398438 7.890625 11.375 5.121094 11.375 C 2.46875 11.375 0.320312 9.195312 0.320312 6.5 C 0.320312 3.804688 2.46875 1.625 5.121094 1.625 C 6.417969 1.625 7.496094 2.105469 8.335938 2.902344 L 7.03125 4.171875 C 6.679688 3.828125 6.054688 3.421875 5.121094 3.421875 C 3.484375 3.421875 2.148438 4.796875 2.148438 6.5 C 2.148438 8.203125 3.484375 9.578125 5.121094 9.578125 C 7.019531 9.578125 7.734375 8.1875 7.84375 7.476562 L 5.121094 7.476562 L 5.121094 5.800781 Z M 14.285156 5.964844 L 14.285156 4.550781 L 12.886719 4.550781 L 12.886719 5.964844 L 11.492188 5.964844 L 11.492188 7.386719 L 12.886719 7.386719 L 12.886719 8.800781 L 14.285156 8.800781 L 14.285156 7.386719 L 15.679688 7.386719 L 15.679688 5.964844 Z M 14.285156 5.964844 "/>
</g>
</svg>
