<?xml version="1.0" encoding="UTF-8"?>
<svg xmlns="http://www.w3.org/2000/svg" xmlns:xlink="http://www.w3.org/1999/xlink" width="16px" height="18px" viewBox="0 0 16 18" version="1.1">
<g id="surface1">
<path style=" stroke:none;fill-rule:nonzero;fill:rgb(0%,0%,0%);fill-opacity:1;" d="M 14.855469 1.125 L 1.140625 1.125 C 0.511719 1.125 0 1.632812 0 2.261719 L 0 15.738281 C 0 16.367188 0.511719 16.875 1.140625 16.875 L 14.855469 16.875 C 15.484375 16.875 16 16.367188 16 15.738281 L 16 2.261719 C 16 1.632812 15.484375 1.125 14.855469 1.125 Z M 4.835938 14.625 L 2.464844 14.625 L 2.464844 7.109375 L 4.839844 7.109375 L 4.839844 14.625 Z M 3.648438 6.082031 C 2.890625 6.082031 2.273438 5.472656 2.273438 4.726562 C 2.273438 3.984375 2.890625 3.375 3.648438 3.375 C 4.40625 3.375 5.023438 3.984375 5.023438 4.726562 C 5.023438 5.476562 4.410156 6.082031 3.648438 6.082031 Z M 13.726562 14.625 L 11.355469 14.625 L 11.355469 10.96875 C 11.355469 10.097656 11.335938 8.976562 10.121094 8.976562 C 8.886719 8.976562 8.695312 9.925781 8.695312 10.90625 L 8.695312 14.625 L 6.324219 14.625 L 6.324219 7.109375 L 8.601562 7.109375 L 8.601562 8.136719 L 8.632812 8.136719 C 8.949219 7.542969 9.726562 6.921875 10.878906 6.921875 C 13.277344 6.921875 13.726562 8.480469 13.726562 10.503906 Z M 13.726562 14.625 "/>
</g>
</svg>
