<?xml version="1.0" encoding="UTF-8"?>
<svg xmlns="http://www.w3.org/2000/svg" xmlns:xlink="http://www.w3.org/1999/xlink" width="13px" height="16px" viewBox="0 0 13 16" version="1.1">
<g id="surface1">
<path style=" stroke:none;fill-rule:nonzero;fill:rgb(0%,0%,0%);fill-opacity:1;" d="M 13 8 C 13 12.28125 10.089844 15.75 6.5 15.75 C 5.828125 15.75 5.183594 15.628906 4.578125 15.402344 C 4.839844 14.886719 5.238281 14.042969 5.382812 13.371094 C 5.460938 13.007812 5.785156 11.527344 5.785156 11.527344 C 6 12.007812 6.617188 12.417969 7.277344 12.417969 C 9.234375 12.417969 10.648438 10.269531 10.648438 7.597656 C 10.648438 5.039062 8.894531 3.121094 6.640625 3.121094 C 3.835938 3.121094 2.347656 5.367188 2.347656 7.8125 C 2.347656 8.949219 2.855469 10.367188 3.664062 10.816406 C 3.789062 10.882812 3.851562 10.851562 3.882812 10.710938 C 3.902344 10.605469 4.011719 10.078125 4.0625 9.835938 C 4.078125 9.757812 4.070312 9.6875 4.019531 9.613281 C 3.753906 9.222656 3.539062 8.507812 3.539062 7.84375 C 3.539062 6.132812 4.625 4.480469 6.472656 4.480469 C 8.070312 4.480469 9.1875 5.777344 9.1875 7.632812 C 9.1875 9.730469 8.300781 11.183594 7.144531 11.183594 C 6.507812 11.183594 6.027344 10.554688 6.183594 9.785156 C 6.367188 8.863281 6.71875 7.867188 6.71875 7.203125 C 6.71875 6.609375 6.453125 6.113281 5.898438 6.113281 C 5.246094 6.113281 4.71875 6.914062 4.71875 7.992188 C 4.71875 8.679688 4.914062 9.144531 4.914062 9.144531 C 4.914062 9.144531 4.273438 12.386719 4.152344 12.992188 C 4.023438 13.664062 4.074219 14.605469 4.128906 15.21875 C 1.714844 14.089844 0 11.285156 0 8 C 0 3.71875 2.910156 0.25 6.5 0.25 C 10.089844 0.25 13 3.71875 13 8 Z M 13 8 "/>
</g>
</svg>
